<?xml version="1.0" standalone="no"?>
<!DOCTYPE svg PUBLIC "-//W3C//DTD SVG 20010904//EN"
 "http://www.w3.org/TR/2001/REC-SVG-20010904/DTD/svg10.dtd">
<svg version="1.0" xmlns="http://www.w3.org/2000/svg"
 width="500.000000pt" height="500.000000pt" viewBox="0 0 500.000000 500.000000"
 preserveAspectRatio="xMidYMid meet">

<g transform="translate(0.000000,500.000000) scale(0.100000,-0.100000)"
fill="#000000" stroke="none">
<path d="M2298 3593 c7 -3 16 -2 19 1 4 3 -2 6 -13 5 -11 0 -14 -3 -6 -6z"/>
<path d="M2348 3593 c12 -2 30 -2 40 0 9 3 -1 5 -23 4 -22 0 -30 -2 -17 -4z"/>
<path d="M2418 3593 c6 -2 18 -2 25 0 6 3 1 5 -13 5 -14 0 -19 -2 -12 -5z"/>
<path d="M1985 3489 c-91 -48 -211 -158 -270 -248 -29 -42 -29 -44 -10 -58 11
-7 28 -12 38 -9 9 2 15 0 12 -5 -11 -17 58 -41 127 -43 57 -2 71 1 79 15 7 13
5 16 -9 14 -9 -2 -17 -4 -17 -5 0 -1 -18 -3 -40 -6 -29 -3 -36 -2 -25 6 12 8
11 10 -7 10 -27 0 -28 7 -8 34 22 29 18 46 -9 46 -13 0 -26 6 -29 14 -6 14 55
26 135 26 20 0 40 5 43 10 3 6 -1 10 -10 10 -9 0 -14 4 -11 9 3 5 -1 11 -9 15
-20 7 -19 26 1 26 10 0 14 6 11 14 -3 7 -1 18 5 24 14 14 1 32 -19 25 -11 -4
-14 -3 -9 5 10 16 73 15 80 0 5 -10 7 -10 12 0 3 6 12 12 20 12 10 0 7 11 -12
40 -15 22 -27 40 -28 40 -1 0 -19 -9 -41 -21z m-158 -301 c-3 -7 -5 -2 -5 12
0 14 2 19 5 13 2 -7 2 -19 0 -25z"/>
<path d="M2023 3303 c-18 -7 -16 -23 2 -23 8 0 15 7 15 15 0 8 -1 15 -2 14 -2
0 -9 -3 -15 -6z"/>
<path d="M1612 3038 c-33 -97 -43 -173 -40 -288 l3 -105 25 2 c89 7 140 16
140 24 0 6 -6 9 -12 8 -69 -9 -79 6 -54 79 14 39 14 41 -7 45 -12 2 4 5 36 6
40 1 56 5 51 12 -4 8 0 8 15 0 32 -18 41 -5 40 52 -1 34 -4 42 -6 22 -3 -16
-10 -33 -16 -37 -9 -6 -8 -11 3 -18 11 -7 11 -10 2 -10 -7 0 -15 7 -18 15 -4
9 -19 15 -35 15 -28 0 -41 22 -19 35 18 11 -2 34 -33 37 -51 5 -33 22 30 29
65 8 83 4 84 -20 0 -11 3 -9 9 7 7 15 18 22 37 22 l28 1 -35 19 c-19 11 -45
19 -57 20 -12 0 -25 5 -29 12 -5 7 -2 9 7 4 8 -4 3 1 -11 12 -13 11 -28 18
-32 16 -4 -3 -8 -1 -8 3 0 10 -53 43 -67 43 -5 0 -19 -28 -31 -62z"/>
<path d="M2139 2976 c11 -5 31 -4 48 1 25 9 23 10 -20 9 -35 -1 -42 -3 -28
-10z"/>
<path d="M2220 2976 c0 -9 40 -13 46 -5 3 5 -6 9 -20 9 -14 0 -26 -2 -26 -4z"/>
<path d="M2696 2947 c3 -10 9 -15 12 -12 3 3 0 11 -7 18 -10 9 -11 8 -5 -6z"/>
<path d="M1775 2909 c-4 -6 -5 -12 -2 -15 2 -3 7 2 10 11 7 17 1 20 -8 4z"/>
<path d="M2702 2860 c0 -14 2 -19 5 -12 2 6 2 18 0 25 -3 6 -5 1 -5 -13z"/>
<path d="M1990 2850 c-12 -7 -12 -10 -1 -10 7 0 11 -6 8 -12 -3 -10 14 -13 68
-13 79 0 117 14 44 17 -24 0 -56 0 -71 -1 -22 -2 -26 1 -22 13 7 18 -4 20 -26
6z"/>
<path d="M1935 2820 c-3 -5 -1 -10 4 -10 6 0 11 5 11 10 0 6 -2 10 -4 10 -3 0
-8 -4 -11 -10z"/>
<path d="M2695 2820 c-3 -5 1 -10 9 -10 9 0 16 5 16 10 0 6 -4 10 -9 10 -6 0
-13 -4 -16 -10z"/>
<path d="M2246 2665 c-3 -8 -1 -15 4 -15 6 0 10 7 10 15 0 8 -2 15 -4 15 -2 0
-6 -7 -10 -15z"/>
<path d="M1607 2534 c-3 -3 -3 -12 0 -20 3 -10 21 -14 57 -14 l51 1 -24 19
c-22 19 -71 27 -84 14z"/>
<path d="M2700 2530 c0 -5 5 -10 11 -10 5 0 7 5 4 10 -3 6 -8 10 -11 10 -2 0
-4 -4 -4 -10z"/>
<path d="M2736 2512 c-3 -5 1 -9 9 -9 8 0 15 4 15 9 0 4 -4 8 -9 8 -6 0 -12
-4 -15 -8z"/>
<path d="M2466 2502 c6 -4 13 -14 16 -22 3 -10 6 -8 10 8 5 18 2 22 -15 22
-13 0 -17 -3 -11 -8z"/>
<path d="M2553 2503 c26 -2 67 -2 90 0 23 2 2 3 -48 3 -49 0 -68 -1 -42 -3z"/>
<path d="M1676 2365 c19 -29 27 -31 45 -8 10 11 10 14 2 9 -8 -4 -13 -2 -13 4
0 6 -4 8 -10 5 -5 -3 -10 -1 -10 4 0 6 -7 11 -15 11 -14 0 -13 -3 1 -25z"/>
<path d="M3056 2294 c-8 -22 -4 -25 11 -9 7 8 9 16 4 19 -5 3 -12 -1 -15 -10z"/>
<path d="M3016 2242 c-3 -5 -21 -9 -41 -10 -19 -1 -44 -6 -56 -12 -11 -7 -26
-9 -33 -7 -7 3 -13 -1 -13 -9 0 -8 8 -13 17 -12 20 4 50 -19 46 -35 -1 -7 2
-2 8 11 6 12 15 21 22 18 11 -4 42 23 58 52 8 13 0 17 -8 4z"/>
</g>
</svg>
